M48
;Layer_Color=9474304
;FILE_FORMAT=2:5
INCH,LZ
;TYPE=PLATED
T1F00S00C0.03000
T2F00S00C0.03150
T3F00S00C0.03937
T4F00S00C0.04724
T5F00S00C0.05906
T6F00S00C0.11811
%
T01
X-01255Y-012
Y-0099
T02
X0094488Y0019685
X0185Y0004331
Y-00175
Y-0037185
X0023622Y-00255
Y0019685
X0047244
X-0023622
X-0047244
X-0047Y-0031
Y-0057
X-00135
X00085
X-00135Y-00815
X-0069Y-01
Y-012
X-0118Y-00585
Y-0035
X-011811Y0019685
X-0094488
X-0165354
Y0067716
X-011811
X-0094488
X-0047244
X-0023622
X0023622
X0047244
X0094488
X01475Y007
X01615
X0185Y0045669
T03
X00945Y-0102
X01045
X01145
X01245
X01345
X01445Y0010614
Y0017307
X0047248Y-0001
X0037248
Y-0034
X0047248
X-00235Y-00335
X-00335
Y-00005
X-00235
X-00945
X-01045
Y-00335
X-00945
X-0165252Y-00345
X-0175252
Y-00015
X-0165252
X01445Y0024
Y0030693
Y0037386
T04
X0070866Y0011811
X0
X-0070866
X-0141732
X-0151575Y0106299
X-013189
X-0080709
X-0061024
X-0009843
X0009843
X0061024
X0080709
X0147638
X0167323
T05
X01215Y00005
X0014669Y-0097083
X-0000921
X-0032575
X-0048165
X-009163
X-010722
X-0142811
X-0158402
X01215Y00605
T06
X019685Y-0110236
X-019685
Y0110236
X019685
M30
