G04 Layer_Physical_Order=2*
G04 Layer_Color=16711680*
%FSLAX25Y25*%
%MOIN*%
G70*
G01*
G75*
%ADD10R,0.05118X0.05905*%
%ADD11R,0.03150X0.04724*%
%ADD12R,0.05905X0.05118*%
%ADD13O,0.09055X0.02362*%
%ADD14C,0.04724*%
%ADD15C,0.02362*%
%ADD16C,0.03937*%
%ADD17C,0.03150*%
%ADD18C,0.05905*%
%ADD19C,0.07874*%
%ADD20C,0.01000*%
%ADD21R,0.06500X0.15000*%
%ADD22C,0.06000*%
%ADD23C,0.06299*%
%ADD24R,0.06299X0.06299*%
%ADD25C,0.11024*%
%ADD26C,0.11811*%
%ADD27C,0.09842*%
%ADD28O,0.07087X0.09842*%
%ADD29O,0.11811X0.04724*%
%ADD30R,0.11811X0.05512*%
%ADD31C,0.07874*%
%ADD32C,0.23622*%
G36*
X-35760Y-74193D02*
X-37055Y-76579D01*
X-37055D01*
Y-86421D01*
X-36471D01*
Y-90683D01*
X-36751Y-90833D01*
X-37890Y-91768D01*
X-38824Y-92907D01*
X-39519Y-94206D01*
X-39947Y-95616D01*
X-40091Y-97083D01*
X-39947Y-98549D01*
X-39519Y-99959D01*
X-38824Y-101259D01*
X-37890Y-102398D01*
X-36751Y-103332D01*
X-35451Y-104027D01*
X-34041Y-104455D01*
X-32575Y-104599D01*
X-31108Y-104455D01*
X-29698Y-104027D01*
X-28399Y-103332D01*
X-27260Y-102398D01*
X-26325Y-101259D01*
X-25631Y-99959D01*
X-25203Y-98549D01*
X-25058Y-97083D01*
X-25203Y-95616D01*
X-25631Y-94206D01*
X-26325Y-92907D01*
X-27260Y-91768D01*
X-28399Y-90833D01*
X-28529Y-90763D01*
Y-89352D01*
X-28000Y-86421D01*
X-24850Y-86421D01*
X-18945D01*
Y-86421D01*
X-16006Y-85840D01*
X-14797Y-86341D01*
X-13500Y-86511D01*
X-12203Y-86341D01*
X-10994Y-85840D01*
X-10513Y-85471D01*
X945D01*
Y-86421D01*
X6850D01*
X10000Y-86421D01*
X10529Y-89352D01*
Y-90814D01*
X10493Y-90833D01*
X9354Y-91768D01*
X8420Y-92907D01*
X7725Y-94206D01*
X7297Y-95616D01*
X7153Y-97083D01*
X7297Y-98549D01*
X7725Y-99959D01*
X8420Y-101259D01*
X9354Y-102398D01*
X10493Y-103332D01*
X11793Y-104027D01*
X13203Y-104455D01*
X14669Y-104599D01*
X16136Y-104455D01*
X17546Y-104027D01*
X18845Y-103332D01*
X19984Y-102398D01*
X20919Y-101259D01*
X21614Y-99959D01*
X22041Y-98549D01*
X22186Y-97083D01*
X22041Y-95616D01*
X21614Y-94206D01*
X20919Y-92907D01*
X19984Y-91768D01*
X18845Y-90833D01*
X18471Y-90633D01*
Y-86421D01*
X19055D01*
Y-84677D01*
X79000D01*
X79822Y-84569D01*
X80588Y-84251D01*
X81246Y-83746D01*
X84957Y-80036D01*
X86341Y-80159D01*
X88451Y-80996D01*
X88489Y-81088D01*
X88994Y-81746D01*
X89652Y-82251D01*
X90418Y-82569D01*
X89945Y-85579D01*
X89945D01*
Y-95421D01*
X89945Y-95421D01*
X89466Y-98373D01*
X89130Y-99183D01*
X88941Y-100622D01*
Y-103378D01*
X89130Y-104817D01*
X89406Y-105482D01*
X88504Y-107569D01*
X87614Y-108632D01*
X-102852D01*
Y-103175D01*
X-101906Y-102398D01*
X-101262Y-101613D01*
X-99425Y-101386D01*
X-97589Y-101613D01*
X-96945Y-102398D01*
X-95806Y-103332D01*
X-94506Y-104027D01*
X-93096Y-104455D01*
X-91630Y-104599D01*
X-90163Y-104455D01*
X-88753Y-104027D01*
X-87454Y-103332D01*
X-86315Y-102398D01*
X-85380Y-101259D01*
X-84686Y-99959D01*
X-84258Y-98549D01*
X-84113Y-97083D01*
X-84258Y-95616D01*
X-84686Y-94206D01*
X-85380Y-92907D01*
X-85987Y-92167D01*
X-86079Y-89055D01*
X-86079D01*
Y-83150D01*
X-86079Y-81107D01*
X-83239Y-79253D01*
X-80543Y-79720D01*
D01*
X-77750Y-80580D01*
X-76803Y-82279D01*
X-76803Y-82870D01*
Y-86378D01*
X-76834Y-86610D01*
X-76803Y-86842D01*
Y-90941D01*
X-69717D01*
Y-90941D01*
X-67921Y-91055D01*
Y-91055D01*
X-66614Y-91055D01*
X-58079D01*
Y-85150D01*
X-58079Y-82000D01*
X-58079Y-78850D01*
Y-72945D01*
X-55661Y-71177D01*
X-37104D01*
X-35760Y-74193D01*
D02*
G37*
G36*
X-131543Y-78720D02*
X-129229D01*
X-127803Y-81279D01*
X-127803Y-81870D01*
Y-85378D01*
X-127834Y-85610D01*
X-127803Y-85842D01*
Y-89941D01*
X-120717D01*
Y-89941D01*
X-119421Y-90055D01*
Y-90055D01*
X-117614Y-90055D01*
X-115204D01*
X-113967Y-92091D01*
X-113629Y-93205D01*
X-114165Y-94206D01*
X-114593Y-95616D01*
X-114737Y-97083D01*
X-114593Y-98549D01*
X-114165Y-99959D01*
X-113470Y-101259D01*
X-112535Y-102398D01*
X-111589Y-103175D01*
Y-108632D01*
X-151191D01*
X-153667Y-106155D01*
X-153553Y-102781D01*
X-153087Y-102398D01*
X-152443Y-101613D01*
X-150606Y-101386D01*
X-148770Y-101613D01*
X-148126Y-102398D01*
X-146987Y-103332D01*
X-145687Y-104027D01*
X-144277Y-104455D01*
X-142811Y-104599D01*
X-141345Y-104455D01*
X-139935Y-104027D01*
X-138635Y-103332D01*
X-137496Y-102398D01*
X-136561Y-101259D01*
X-135867Y-99959D01*
X-135439Y-98549D01*
X-135294Y-97083D01*
X-135439Y-95616D01*
X-135867Y-94206D01*
X-136561Y-92907D01*
X-137496Y-91768D01*
X-138182Y-91205D01*
X-137949Y-88055D01*
X-137579D01*
Y-82150D01*
X-137579Y-79000D01*
X-134824Y-78046D01*
X-131543D01*
Y-78720D01*
D02*
G37*
G36*
X144579Y-44055D02*
X154421D01*
Y-43499D01*
X158604D01*
Y-106218D01*
X156191Y-108632D01*
X141386D01*
X140496Y-107569D01*
X139594Y-105482D01*
X139870Y-104817D01*
X140059Y-103378D01*
Y-100622D01*
X139870Y-99183D01*
X139315Y-97842D01*
X138431Y-96691D01*
X137677Y-96112D01*
Y-91816D01*
X142746Y-86746D01*
X143251Y-86088D01*
X143569Y-85322D01*
X143677Y-84500D01*
Y-77000D01*
X143569Y-76178D01*
X143251Y-75412D01*
X142746Y-74754D01*
X140246Y-72254D01*
X139588Y-71749D01*
X138822Y-71431D01*
X137698Y-70806D01*
X136937Y-69500D01*
X136828Y-68678D01*
X136511Y-67912D01*
X136006Y-67254D01*
Y-66746D01*
X136511Y-66088D01*
X136828Y-65322D01*
X136937Y-64500D01*
X136828Y-63678D01*
X136511Y-62912D01*
X136006Y-62254D01*
Y-61746D01*
X136511Y-61088D01*
X136828Y-60322D01*
X136937Y-59500D01*
X136828Y-58678D01*
X136511Y-57912D01*
X136006Y-57254D01*
Y-56746D01*
X136511Y-56088D01*
X136828Y-55322D01*
X136937Y-54500D01*
X136828Y-53678D01*
X136511Y-52912D01*
X136006Y-52254D01*
Y-51746D01*
X136511Y-51088D01*
X136828Y-50322D01*
X136937Y-49500D01*
X136828Y-48678D01*
X136511Y-47912D01*
X136184Y-47485D01*
X136641Y-45775D01*
X136828Y-45322D01*
X136893Y-44831D01*
X136992Y-44463D01*
X139480Y-42766D01*
X139738Y-42677D01*
X144579D01*
Y-44055D01*
D02*
G37*
G36*
X-66990Y-67676D02*
X-66046Y-69826D01*
X-66069Y-69881D01*
X-66177Y-70703D01*
Y-72945D01*
X-67921D01*
Y-78943D01*
X-70379Y-81544D01*
X-72462Y-81506D01*
X-73457Y-79720D01*
X-73457Y-79130D01*
Y-71059D01*
X-80543D01*
Y-71899D01*
X-86079D01*
Y-70945D01*
X-95921D01*
Y-76850D01*
X-95921Y-80000D01*
X-95921Y-83150D01*
Y-89055D01*
X-95921Y-89055D01*
X-96953Y-91777D01*
X-97589Y-92552D01*
X-99425Y-92779D01*
X-101262Y-92552D01*
X-101906Y-91768D01*
X-103044Y-90833D01*
X-104344Y-90138D01*
X-105754Y-89711D01*
X-106861Y-89602D01*
X-107220Y-89566D01*
X-109579Y-86888D01*
Y-84150D01*
X-109579Y-81000D01*
X-109579D01*
Y-81000D01*
X-109579D01*
Y-71945D01*
X-109579D01*
X-110303Y-68795D01*
X-108184Y-66677D01*
X-67851D01*
X-66990Y-67676D01*
D02*
G37*
G36*
X208661Y-122047D02*
X-208661D01*
Y2500D01*
X-182419D01*
X-180728Y434D01*
X-180302Y-650D01*
X-180414Y-1500D01*
X-180238Y-2836D01*
X-179723Y-4081D01*
X-178902Y-5150D01*
X-177833Y-5971D01*
X-176588Y-6486D01*
X-175252Y-6662D01*
X-173916Y-6486D01*
X-173520Y-6322D01*
X-170370Y-6618D01*
X-170370Y-6618D01*
X-167065D01*
X-166639Y-6795D01*
X-165354Y-6964D01*
X-164070Y-6795D01*
X-163644Y-6618D01*
X-160134D01*
Y2500D01*
X-156881D01*
X-156825Y2378D01*
X-155368Y372D01*
X-155252Y264D01*
X-155163Y133D01*
X-153411Y-1620D01*
X-153279Y-1708D01*
X-153171Y-1825D01*
X-151166Y-3282D01*
X-151022Y-3348D01*
X-150897Y-3446D01*
X-148689Y-4572D01*
X-148536Y-4615D01*
X-148398Y-4692D01*
X-146040Y-5458D01*
X-145883Y-5477D01*
X-145734Y-5532D01*
X-143286Y-5919D01*
X-143127Y-5913D01*
X-142972Y-5944D01*
X-140493D01*
X-140337Y-5913D01*
X-140179Y-5919D01*
X-137731Y-5532D01*
X-137582Y-5477D01*
X-137424Y-5458D01*
X-135067Y-4692D01*
X-134929Y-4615D01*
X-134776Y-4572D01*
X-132567Y-3446D01*
X-132443Y-3348D01*
X-132299Y-3282D01*
X-130293Y-1825D01*
X-130186Y-1708D01*
X-130054Y-1620D01*
X-128301Y133D01*
X-128213Y264D01*
X-128097Y372D01*
X-126640Y2378D01*
X-126583Y2500D01*
X-122081D01*
Y-32157D01*
X-122340Y-32494D01*
X-122841Y-33703D01*
X-123011Y-35000D01*
X-122841Y-36297D01*
X-122340Y-37506D01*
X-121544Y-38544D01*
X-120506Y-39340D01*
X-119297Y-39841D01*
X-118000Y-40011D01*
X-116703Y-39841D01*
X-115494Y-39340D01*
X-114456Y-38544D01*
X-113660Y-37506D01*
X-113159Y-36297D01*
X-112989Y-35000D01*
X-113159Y-33703D01*
X-113660Y-32494D01*
X-114139Y-31870D01*
Y211D01*
X-114047Y281D01*
X-112312Y854D01*
X-109555Y-1314D01*
X-109486Y-1836D01*
X-108971Y-3081D01*
X-108150Y-4150D01*
X-107081Y-4971D01*
X-105836Y-5486D01*
X-104500Y-5662D01*
X-103164Y-5486D01*
X-102768Y-5322D01*
X-99618Y-5618D01*
X-99618Y-5618D01*
X-89382D01*
Y2500D01*
X-86015D01*
X-85959Y2378D01*
X-84502Y372D01*
X-84385Y264D01*
X-84297Y133D01*
X-82544Y-1620D01*
X-82413Y-1708D01*
X-82305Y-1825D01*
X-80300Y-3282D01*
X-80156Y-3348D01*
X-80031Y-3446D01*
X-77823Y-4572D01*
X-77670Y-4615D01*
X-77531Y-4692D01*
X-75174Y-5458D01*
X-75016Y-5477D01*
X-74868Y-5532D01*
X-72420Y-5919D01*
X-72261Y-5913D01*
X-72105Y-5944D01*
X-69627D01*
X-69471Y-5913D01*
X-69313Y-5919D01*
X-66865Y-5532D01*
X-66716Y-5477D01*
X-66558Y-5458D01*
X-64201Y-4692D01*
X-64062Y-4615D01*
X-63910Y-4572D01*
X-61701Y-3446D01*
X-61577Y-3348D01*
X-61433Y-3282D01*
X-59427Y-1825D01*
X-59320Y-1708D01*
X-59188Y-1620D01*
X-57435Y133D01*
X-57347Y264D01*
X-57231Y372D01*
X-55774Y2378D01*
X-55717Y2500D01*
X-51132D01*
X-50985Y-28032D01*
X-51340Y-28494D01*
X-51841Y-29703D01*
X-52011Y-31000D01*
X-51841Y-32297D01*
X-51340Y-33506D01*
X-50544Y-34544D01*
X-49506Y-35340D01*
X-48297Y-35841D01*
X-47000Y-36011D01*
X-45703Y-35841D01*
X-44494Y-35340D01*
X-43456Y-34544D01*
X-42660Y-33506D01*
X-42159Y-32297D01*
X-41989Y-31000D01*
X-42159Y-29703D01*
X-42660Y-28494D01*
X-43044Y-27995D01*
X-43165Y-2867D01*
X-40029Y58D01*
X-39020Y-18D01*
X-38662Y-500D01*
X-38486Y-1836D01*
X-37971Y-3081D01*
X-37150Y-4150D01*
X-36081Y-4971D01*
X-34836Y-5486D01*
X-33500Y-5662D01*
X-32164Y-5486D01*
X-31768Y-5322D01*
X-28618Y-5618D01*
X-28618Y-5618D01*
X-25333D01*
X-24907Y-5795D01*
X-23622Y-5964D01*
X-22337Y-5795D01*
X-21911Y-5618D01*
X-18382D01*
Y2500D01*
X-15149D01*
X-15093Y2378D01*
X-13636Y372D01*
X-13519Y264D01*
X-13431Y133D01*
X-11678Y-1620D01*
X-11547Y-1708D01*
X-11439Y-1825D01*
X-9433Y-3282D01*
X-9290Y-3348D01*
X-9165Y-3446D01*
X-6956Y-4572D01*
X-6804Y-4615D01*
X-6665Y-4692D01*
X-4308Y-5458D01*
X-4150Y-5477D01*
X-4002Y-5532D01*
X-1553Y-5919D01*
X-1395Y-5913D01*
X-1239Y-5944D01*
X1239D01*
X1395Y-5913D01*
X1553Y-5919D01*
X4002Y-5532D01*
X4150Y-5477D01*
X4308Y-5458D01*
X6665Y-4692D01*
X6804Y-4615D01*
X6956Y-4572D01*
X9165Y-3446D01*
X9290Y-3348D01*
X9433Y-3282D01*
X11439Y-1825D01*
X11547Y-1708D01*
X11678Y-1620D01*
X13431Y133D01*
X13519Y264D01*
X13636Y372D01*
X15093Y2378D01*
X15149Y2500D01*
X19651D01*
Y-22513D01*
X19282Y-22994D01*
X18781Y-24203D01*
X18611Y-25500D01*
X18781Y-26797D01*
X19282Y-28006D01*
X20078Y-29044D01*
X21116Y-29840D01*
X22325Y-30341D01*
X23622Y-30511D01*
X24919Y-30341D01*
X26128Y-29840D01*
X27166Y-29044D01*
X27962Y-28006D01*
X28463Y-26797D01*
X28633Y-25500D01*
X28463Y-24203D01*
X27962Y-22994D01*
X27593Y-22513D01*
Y313D01*
X29977Y1438D01*
X32112Y-799D01*
X32086Y-1000D01*
X32262Y-2336D01*
X32777Y-3581D01*
X33598Y-4650D01*
X34667Y-5471D01*
X35912Y-5986D01*
X37248Y-6162D01*
X38584Y-5986D01*
X38980Y-5822D01*
X42130Y-6118D01*
X42130Y-6118D01*
X52366D01*
Y2500D01*
X55717D01*
X55774Y2378D01*
X57231Y372D01*
X57347Y264D01*
X57435Y133D01*
X59188Y-1620D01*
X59320Y-1708D01*
X59427Y-1825D01*
X61433Y-3282D01*
X61577Y-3348D01*
X61701Y-3446D01*
X63910Y-4572D01*
X64062Y-4615D01*
X64201Y-4692D01*
X66558Y-5458D01*
X66716Y-5477D01*
X66865Y-5532D01*
X69313Y-5919D01*
X69471Y-5913D01*
X69627Y-5944D01*
X72105D01*
X72261Y-5913D01*
X72420Y-5919D01*
X74868Y-5532D01*
X75016Y-5477D01*
X75174Y-5458D01*
X77531Y-4692D01*
X77670Y-4615D01*
X77823Y-4572D01*
X80031Y-3446D01*
X80156Y-3348D01*
X80300Y-3282D01*
X82305Y-1825D01*
X82413Y-1708D01*
X82544Y-1620D01*
X84297Y133D01*
X84385Y264D01*
X84502Y372D01*
X85959Y2378D01*
X86015Y2500D01*
X111588D01*
Y15714D01*
X116170D01*
X117385Y14499D01*
X118207Y13868D01*
X119165Y13471D01*
X120193Y13336D01*
X139227D01*
X139826Y13088D01*
X140957Y12939D01*
X170214D01*
X179992Y3162D01*
X180014Y2995D01*
X180529Y1750D01*
X180632Y1616D01*
Y-14785D01*
X180529Y-14919D01*
X180014Y-16164D01*
X179992Y-16331D01*
X160766Y-35557D01*
X154421D01*
Y-35000D01*
X144579D01*
Y-36323D01*
X127067D01*
X126245Y-36432D01*
X125478Y-36749D01*
X124821Y-37254D01*
X124316Y-37912D01*
X123998Y-38678D01*
X123890Y-39500D01*
X123998Y-40322D01*
X124316Y-41088D01*
X124821Y-41746D01*
Y-42254D01*
X124316Y-42912D01*
X123998Y-43678D01*
X123890Y-44500D01*
X123998Y-45322D01*
X124316Y-46088D01*
X124821Y-46746D01*
Y-47254D01*
X124316Y-47912D01*
X123998Y-48678D01*
X123890Y-49500D01*
X123998Y-50322D01*
X124316Y-51088D01*
X124821Y-51746D01*
Y-52254D01*
X124316Y-52912D01*
X123998Y-53678D01*
X123890Y-54500D01*
X123998Y-55322D01*
X124316Y-56088D01*
X124821Y-56746D01*
Y-57254D01*
X124316Y-57912D01*
X123998Y-58678D01*
X123890Y-59500D01*
X123998Y-60322D01*
X124316Y-61088D01*
X124821Y-61746D01*
Y-62254D01*
X124316Y-62912D01*
X123998Y-63678D01*
X123890Y-64500D01*
X123998Y-65322D01*
X124316Y-66088D01*
X124821Y-66746D01*
Y-67254D01*
X124316Y-67912D01*
X123998Y-68678D01*
X123890Y-69500D01*
X123998Y-70322D01*
X124316Y-71088D01*
X124821Y-71746D01*
Y-72254D01*
X124316Y-72912D01*
X123998Y-73678D01*
X123890Y-74500D01*
X123998Y-75322D01*
X124316Y-76088D01*
X124821Y-76746D01*
Y-77254D01*
X124316Y-77912D01*
X123998Y-78678D01*
X123890Y-79500D01*
X123998Y-80322D01*
X124316Y-81088D01*
X124821Y-81746D01*
X124128Y-84817D01*
X124060Y-84948D01*
X122254Y-86754D01*
X121749Y-87412D01*
X121432Y-88178D01*
X121323Y-89000D01*
Y-96112D01*
X120569Y-96691D01*
X119685Y-97842D01*
X119130Y-99183D01*
X118941Y-100622D01*
Y-103378D01*
X119130Y-104817D01*
X119406Y-105482D01*
X118504Y-107569D01*
X117614Y-108632D01*
X111386D01*
X110496Y-107569D01*
X109594Y-105482D01*
X109870Y-104817D01*
X110059Y-103378D01*
Y-100622D01*
X109870Y-99183D01*
X109507Y-98307D01*
Y-87500D01*
X109354Y-86732D01*
X108919Y-86081D01*
X108268Y-85646D01*
X108055Y-85603D01*
Y-85579D01*
X107931D01*
X107500Y-85493D01*
X101000D01*
X100662Y-85188D01*
X100429Y-84587D01*
X100179Y-81746D01*
X100684Y-81088D01*
X101002Y-80322D01*
X101110Y-79500D01*
X101002Y-78678D01*
X100684Y-77912D01*
X100179Y-77254D01*
Y-76746D01*
X100684Y-76088D01*
X101002Y-75322D01*
X101110Y-74500D01*
X101002Y-73678D01*
X100684Y-72912D01*
X100179Y-72254D01*
Y-71746D01*
X100684Y-71088D01*
X101002Y-70322D01*
X101110Y-69500D01*
X101002Y-68678D01*
X100684Y-67912D01*
X100179Y-67254D01*
Y-66746D01*
X100684Y-66088D01*
X101002Y-65322D01*
X101110Y-64500D01*
X101002Y-63678D01*
X100684Y-62912D01*
X100179Y-62254D01*
Y-61746D01*
X100684Y-61088D01*
X101002Y-60322D01*
X101110Y-59500D01*
X101002Y-58678D01*
X100684Y-57912D01*
X100179Y-57254D01*
Y-56746D01*
X100684Y-56088D01*
X101002Y-55322D01*
X101110Y-54500D01*
X101002Y-53678D01*
X100684Y-52912D01*
X100179Y-52254D01*
Y-51746D01*
X100684Y-51088D01*
X101002Y-50322D01*
X101110Y-49500D01*
X101002Y-48678D01*
X100684Y-47912D01*
X100179Y-47254D01*
X99521Y-46749D01*
X98755Y-46431D01*
X97933Y-46323D01*
X91240D01*
X90418Y-46431D01*
X89652Y-46749D01*
X88994Y-47254D01*
X88489Y-47912D01*
X88172Y-48678D01*
X88063Y-49500D01*
X88172Y-50322D01*
X88489Y-51088D01*
X88816Y-51515D01*
X88359Y-53224D01*
X88172Y-53678D01*
X88107Y-54169D01*
X88008Y-54537D01*
X85520Y-56235D01*
X85262Y-56323D01*
X76000D01*
X75178Y-56432D01*
X74412Y-56749D01*
X73754Y-57254D01*
X70684Y-60323D01*
X66124D01*
X64819Y-57174D01*
X84269Y-37723D01*
X87699Y-38534D01*
X88112Y-39131D01*
X88063Y-39500D01*
X88172Y-40322D01*
X88489Y-41088D01*
X88994Y-41746D01*
X89652Y-42251D01*
X90418Y-42568D01*
X91240Y-42677D01*
X97933D01*
X98755Y-42568D01*
X99521Y-42251D01*
X100179Y-41746D01*
X100684Y-41088D01*
X101002Y-40322D01*
X101110Y-39500D01*
X101002Y-38678D01*
X100684Y-37912D01*
X100179Y-37254D01*
Y-36746D01*
X100684Y-36088D01*
X101002Y-35322D01*
X101110Y-34500D01*
X101002Y-33678D01*
X100684Y-32912D01*
X100179Y-32254D01*
Y-31746D01*
X100684Y-31088D01*
X101002Y-30322D01*
X101110Y-29500D01*
X101002Y-28678D01*
X100684Y-27912D01*
X100179Y-27254D01*
Y-26746D01*
X100684Y-26088D01*
X101002Y-25322D01*
X101110Y-24500D01*
X101002Y-23678D01*
X100684Y-22912D01*
X100179Y-22254D01*
Y-21746D01*
X100684Y-21088D01*
X101002Y-20322D01*
X101110Y-19500D01*
X101002Y-18678D01*
X100684Y-17912D01*
X100179Y-17254D01*
Y-16746D01*
X100684Y-16088D01*
X101002Y-15322D01*
X101110Y-14500D01*
X101002Y-13678D01*
X100684Y-12912D01*
X100179Y-12254D01*
X99521Y-11749D01*
X98755Y-11432D01*
X97933Y-11323D01*
X81500D01*
X80678Y-11432D01*
X79912Y-11749D01*
X79254Y-12254D01*
X72184Y-19323D01*
X51055D01*
Y-17579D01*
X45150D01*
X42000Y-17579D01*
X38850Y-17579D01*
X32945D01*
Y-27421D01*
X33277D01*
Y-30768D01*
X32777Y-31419D01*
X32262Y-32664D01*
X32086Y-34000D01*
X32262Y-35336D01*
X32777Y-36581D01*
X33598Y-37650D01*
X34667Y-38471D01*
X35912Y-38986D01*
X37248Y-39162D01*
X38584Y-38986D01*
X39829Y-38471D01*
X40898Y-37650D01*
X41719Y-36581D01*
X42234Y-35336D01*
X42410Y-34000D01*
X42234Y-32664D01*
X41719Y-31419D01*
X41219Y-30768D01*
Y-30247D01*
X42000Y-27421D01*
X45150Y-27421D01*
X51055D01*
Y-25677D01*
X69215D01*
X70421Y-28587D01*
X53684Y-45323D01*
X33316D01*
X24246Y-36254D01*
X23588Y-35749D01*
X22822Y-35432D01*
X22000Y-35323D01*
X-6684D01*
X-10823Y-31184D01*
Y-26000D01*
X-10932Y-25178D01*
X-11249Y-24412D01*
X-11754Y-23754D01*
X-14254Y-21254D01*
X-14912Y-20749D01*
X-15678Y-20432D01*
X-16500Y-20323D01*
X-19945D01*
Y-18579D01*
X-25850D01*
X-29000Y-18579D01*
X-32150Y-18579D01*
X-38055D01*
Y-28421D01*
X-38055Y-28421D01*
X-38214Y-31505D01*
X-38486Y-32164D01*
X-38662Y-33500D01*
X-38486Y-34836D01*
X-37971Y-36081D01*
X-37150Y-37150D01*
X-36081Y-37971D01*
X-34836Y-38486D01*
X-33500Y-38662D01*
X-32164Y-38486D01*
X-30919Y-37971D01*
X-29850Y-37150D01*
X-29029Y-36081D01*
X-28514Y-34836D01*
X-28338Y-33500D01*
X-28514Y-32164D01*
X-28759Y-31571D01*
X-27885Y-29527D01*
X-26976Y-28421D01*
X-25850Y-28421D01*
X-19945D01*
X-19945Y-28421D01*
X-17177Y-29342D01*
Y-32500D01*
X-17068Y-33322D01*
X-16751Y-34088D01*
X-16246Y-34746D01*
X-12319Y-38674D01*
X-13624Y-41823D01*
X-73684D01*
X-81823Y-33684D01*
Y-23500D01*
X-81932Y-22678D01*
X-82249Y-21912D01*
X-82754Y-21254D01*
X-84754Y-19254D01*
X-85412Y-18749D01*
X-86178Y-18431D01*
X-87000Y-18323D01*
X-90945D01*
Y-16579D01*
X-96850D01*
X-100000Y-16579D01*
X-103150Y-16579D01*
X-109055D01*
Y-26421D01*
X-108471D01*
Y-30268D01*
X-108971Y-30919D01*
X-109486Y-32164D01*
X-109662Y-33500D01*
X-109486Y-34836D01*
X-108971Y-36081D01*
X-108150Y-37150D01*
X-107081Y-37971D01*
X-105836Y-38486D01*
X-104500Y-38662D01*
X-103164Y-38486D01*
X-101919Y-37971D01*
X-100850Y-37150D01*
X-100029Y-36081D01*
X-99514Y-34836D01*
X-99338Y-33500D01*
X-99514Y-32164D01*
X-100029Y-30919D01*
X-100529Y-30268D01*
Y-29352D01*
X-100000Y-26421D01*
X-96850Y-26421D01*
X-90945D01*
Y-26421D01*
X-88177Y-27342D01*
Y-35000D01*
X-88068Y-35822D01*
X-87751Y-36588D01*
X-87246Y-37246D01*
X-80579Y-43913D01*
X-81785Y-46823D01*
X-140184D01*
X-151823Y-35184D01*
Y-27500D01*
X-151932Y-26678D01*
X-152249Y-25912D01*
X-152754Y-25254D01*
X-157254Y-20754D01*
X-157912Y-20249D01*
X-158678Y-19931D01*
X-159500Y-19823D01*
X-161445D01*
Y-18079D01*
X-167350D01*
X-170500Y-18079D01*
X-173650Y-18079D01*
X-179555D01*
Y-27921D01*
X-179223D01*
Y-31268D01*
X-179723Y-31919D01*
X-180238Y-33164D01*
X-180414Y-34500D01*
X-180238Y-35836D01*
X-179723Y-37081D01*
X-178902Y-38150D01*
X-177833Y-38971D01*
X-176588Y-39486D01*
X-175252Y-39662D01*
X-173916Y-39486D01*
X-172671Y-38971D01*
X-171602Y-38150D01*
X-170781Y-37081D01*
X-170266Y-35836D01*
X-170090Y-34500D01*
X-170266Y-33164D01*
X-170781Y-31919D01*
X-171281Y-31268D01*
Y-30747D01*
X-170500Y-27921D01*
X-167350Y-27921D01*
X-161445D01*
Y-27921D01*
X-158523Y-28470D01*
X-158177Y-28816D01*
Y-36500D01*
X-158069Y-37322D01*
X-157751Y-38088D01*
X-157246Y-38746D01*
X-146113Y-49879D01*
X-147418Y-53029D01*
X-148000D01*
X-149028Y-53164D01*
X-149986Y-53561D01*
X-150808Y-54192D01*
X-160210Y-63594D01*
X-160840Y-64416D01*
X-161237Y-65374D01*
X-161373Y-66402D01*
Y-90189D01*
X-162577Y-90833D01*
X-163717Y-91768D01*
X-164651Y-92907D01*
X-165346Y-94206D01*
X-165774Y-95616D01*
X-165918Y-97083D01*
X-165774Y-98549D01*
X-165346Y-99959D01*
X-164651Y-101259D01*
X-163717Y-102398D01*
X-162868Y-103094D01*
Y-107500D01*
X-162719Y-108631D01*
X-162283Y-109684D01*
X-161589Y-110589D01*
X-156089Y-116089D01*
X-155184Y-116783D01*
X-154130Y-117219D01*
X-153000Y-117368D01*
X158000D01*
X159131Y-117219D01*
X160184Y-116783D01*
X161089Y-116089D01*
X166061Y-111116D01*
X166755Y-110212D01*
X167192Y-109158D01*
X167341Y-108028D01*
Y-41337D01*
X186169Y-22508D01*
X186336Y-22486D01*
X187581Y-21971D01*
X188650Y-21150D01*
X189471Y-20081D01*
X189986Y-18836D01*
X190162Y-17500D01*
X189986Y-16164D01*
X189471Y-14919D01*
X189368Y-14785D01*
Y1616D01*
X189471Y1750D01*
X189986Y2995D01*
X190162Y4331D01*
X189986Y5667D01*
X189471Y6912D01*
X188650Y7981D01*
X187581Y8801D01*
X186336Y9317D01*
X186169Y9339D01*
X175112Y20396D01*
X174208Y21090D01*
X173154Y21526D01*
X172024Y21675D01*
X140957D01*
X139826Y21526D01*
X139227Y21278D01*
X121838D01*
X120623Y22493D01*
X119800Y23124D01*
X118843Y23521D01*
X117815Y23656D01*
X111588D01*
Y48453D01*
X111706Y48658D01*
X111791Y48906D01*
X111907Y49142D01*
X112175Y50143D01*
X112192Y50405D01*
X112243Y50663D01*
Y53563D01*
X115300Y54761D01*
X117132Y53192D01*
Y36000D01*
X117281Y34870D01*
X117717Y33816D01*
X118411Y32911D01*
X123718Y27604D01*
X124623Y26910D01*
X125677Y26474D01*
X126807Y26325D01*
X170024D01*
X171154Y26474D01*
X172208Y26910D01*
X173112Y27604D01*
X186169Y40661D01*
X186336Y40683D01*
X187581Y41199D01*
X188650Y42019D01*
X189471Y43088D01*
X189986Y44333D01*
X190162Y45669D01*
X189986Y47005D01*
X189471Y48250D01*
X188650Y49320D01*
X187581Y50140D01*
X186336Y50656D01*
X185000Y50832D01*
X183664Y50656D01*
X182419Y50140D01*
X181350Y49320D01*
X180529Y48250D01*
X180014Y47005D01*
X179992Y46838D01*
X168214Y35061D01*
X155172D01*
X154741Y35238D01*
X152411Y37386D01*
X152262Y38516D01*
X151826Y39570D01*
X151132Y40475D01*
X150227Y41169D01*
X149174Y41605D01*
X148868Y41645D01*
Y51191D01*
X150589Y52911D01*
X151283Y53816D01*
X151719Y54870D01*
X151868Y56000D01*
Y67285D01*
X151971Y67419D01*
X152486Y68664D01*
X152662Y70000D01*
X152486Y71336D01*
X151971Y72581D01*
X151868Y72715D01*
Y100858D01*
X152533Y101404D01*
X153394Y102453D01*
X154034Y103650D01*
X154428Y104949D01*
X154561Y106299D01*
X154428Y107650D01*
X154034Y108949D01*
X153394Y110145D01*
X152533Y111195D01*
X151484Y112056D01*
X150287Y112695D01*
X148988Y113089D01*
X147638Y113222D01*
X146287Y113089D01*
X144988Y112695D01*
X143791Y112056D01*
X142742Y111195D01*
X141881Y110145D01*
X141242Y108949D01*
X140848Y107650D01*
X140715Y106299D01*
X140848Y104949D01*
X141242Y103650D01*
X141881Y102453D01*
X142742Y101404D01*
X143132Y101084D01*
Y72715D01*
X143029Y72581D01*
X142514Y71336D01*
X142338Y70000D01*
X142514Y68664D01*
X143029Y67419D01*
X143132Y67285D01*
Y57809D01*
X141411Y56089D01*
X140717Y55184D01*
X140281Y54131D01*
X140132Y53000D01*
Y41645D01*
X139826Y41605D01*
X138773Y41169D01*
X137868Y40475D01*
X137174Y39570D01*
X136738Y38516D01*
X136589Y37386D01*
X134259Y35238D01*
X133828Y35061D01*
X128616D01*
X125868Y37809D01*
Y53907D01*
X125896Y53921D01*
X127095Y54905D01*
X128079Y56104D01*
X128810Y57472D01*
X129260Y58956D01*
X129412Y60500D01*
X129260Y62044D01*
X128810Y63528D01*
X128079Y64896D01*
X127095Y66095D01*
X125896Y67079D01*
X124528Y67810D01*
X123044Y68260D01*
X121500Y68412D01*
X119956Y68260D01*
X118472Y67810D01*
X117104Y67079D01*
X115905Y66095D01*
X115393Y65470D01*
X113199Y65903D01*
X112243Y66462D01*
Y110236D01*
Y110755D01*
X112192Y111012D01*
X112175Y111274D01*
X111907Y112275D01*
X111791Y112511D01*
X111706Y112759D01*
X111588Y112964D01*
Y122047D01*
X208661D01*
Y-122047D01*
D02*
G37*
G36*
X-122340Y-61006D02*
X-121544Y-62044D01*
X-120506Y-62840D01*
X-119297Y-63341D01*
X-118405Y-63458D01*
X-117350Y-65090D01*
X-116976Y-66553D01*
X-117251Y-66912D01*
X-117569Y-67678D01*
X-117677Y-68500D01*
Y-71945D01*
X-119421D01*
Y-78666D01*
X-120218Y-80274D01*
X-121986Y-80359D01*
X-123060Y-79389D01*
X-124457Y-77663D01*
Y-70059D01*
X-131543D01*
Y-70899D01*
X-137579D01*
Y-69945D01*
X-147421D01*
Y-75850D01*
X-147421Y-79000D01*
X-147421Y-82150D01*
Y-88055D01*
X-147421Y-88055D01*
X-147434Y-91200D01*
X-148126Y-91768D01*
X-148770Y-92552D01*
X-150606Y-92779D01*
X-152443Y-92552D01*
X-153087Y-91768D01*
X-153431Y-91485D01*
Y-68046D01*
X-146355Y-60971D01*
X-122354D01*
X-122340Y-61006D01*
D02*
G37*
%LPC*%
G36*
X133760Y-11323D02*
X127067D01*
X126245Y-11432D01*
X125478Y-11749D01*
X124821Y-12254D01*
X124316Y-12912D01*
X123998Y-13678D01*
X123890Y-14500D01*
X123998Y-15322D01*
X124316Y-16088D01*
X124821Y-16746D01*
Y-17254D01*
X124316Y-17912D01*
X123998Y-18678D01*
X123890Y-19500D01*
X123998Y-20322D01*
X124316Y-21088D01*
X124821Y-21746D01*
Y-22254D01*
X124316Y-22912D01*
X123998Y-23678D01*
X123890Y-24500D01*
X123998Y-25322D01*
X124316Y-26088D01*
X124821Y-26746D01*
Y-27254D01*
X124316Y-27912D01*
X123998Y-28678D01*
X123890Y-29500D01*
X123998Y-30322D01*
X124316Y-31088D01*
X124821Y-31746D01*
X125478Y-32251D01*
X126245Y-32568D01*
X127067Y-32677D01*
X133760D01*
X134582Y-32568D01*
X135348Y-32251D01*
X136006Y-31746D01*
X136511Y-31088D01*
X136828Y-30322D01*
X136937Y-29500D01*
X136828Y-28678D01*
X136511Y-27912D01*
X136006Y-27254D01*
Y-26746D01*
X136511Y-26088D01*
X136828Y-25322D01*
X136937Y-24500D01*
X136828Y-23678D01*
X136511Y-22912D01*
X136006Y-22254D01*
Y-21746D01*
X136511Y-21088D01*
X136828Y-20322D01*
X136937Y-19500D01*
X136828Y-18678D01*
X136511Y-17912D01*
X136006Y-17254D01*
Y-16746D01*
X136511Y-16088D01*
X136828Y-15322D01*
X136937Y-14500D01*
X136828Y-13678D01*
X136511Y-12912D01*
X136006Y-12254D01*
X135348Y-11749D01*
X134582Y-11432D01*
X133760Y-11323D01*
D02*
G37*
%LPD*%
D10*
X-104528Y-21500D02*
D03*
X-95472D02*
D03*
X103528Y-90500D02*
D03*
X94472D02*
D03*
X-175028Y-23000D02*
D03*
X-165972D02*
D03*
X-33528Y-23500D02*
D03*
X-24472D02*
D03*
X37472Y-22500D02*
D03*
X46528D02*
D03*
X-23472Y-81500D02*
D03*
X-32528D02*
D03*
X5472D02*
D03*
X14528D02*
D03*
D11*
X-77000Y-75390D02*
D03*
X-80740Y-86610D02*
D03*
X-73260D02*
D03*
X-128000Y-74390D02*
D03*
X-131740Y-85610D02*
D03*
X-124260D02*
D03*
D12*
X-142500Y-83528D02*
D03*
Y-74472D02*
D03*
X-114500Y-85528D02*
D03*
Y-76472D02*
D03*
X-91000Y-84528D02*
D03*
Y-75472D02*
D03*
X-63000Y-86528D02*
D03*
Y-77472D02*
D03*
X149500Y-30472D02*
D03*
Y-39528D02*
D03*
D13*
X130413Y-79500D02*
D03*
Y-74500D02*
D03*
Y-69500D02*
D03*
Y-64500D02*
D03*
Y-59500D02*
D03*
Y-54500D02*
D03*
Y-49500D02*
D03*
Y-44500D02*
D03*
Y-39500D02*
D03*
Y-34500D02*
D03*
Y-29500D02*
D03*
Y-24500D02*
D03*
Y-19500D02*
D03*
Y-14500D02*
D03*
X94587Y-79500D02*
D03*
Y-74500D02*
D03*
Y-69500D02*
D03*
Y-64500D02*
D03*
Y-59500D02*
D03*
Y-54500D02*
D03*
Y-49500D02*
D03*
Y-44500D02*
D03*
Y-39500D02*
D03*
Y-34500D02*
D03*
Y-29500D02*
D03*
Y-24500D02*
D03*
Y-19500D02*
D03*
Y-14500D02*
D03*
D14*
X-107220Y-113000D02*
Y-97083D01*
X-153000Y-113000D02*
X-107220D01*
X-158500Y-107500D02*
X-153000Y-113000D01*
X-107500D02*
X104500D01*
X-158500Y-107500D02*
Y-96500D01*
X119500Y60500D02*
X121500Y58500D01*
Y36000D02*
Y58500D01*
Y36000D02*
X126807Y30693D01*
X104500Y-113000D02*
X158000D01*
X104500D02*
Y-102000D01*
X158000Y-113000D02*
X162972Y-108028D01*
Y-39528D01*
X185000Y-17500D01*
X147500Y56000D02*
Y70000D01*
X144500Y53000D02*
X147500Y56000D01*
X144500Y37386D02*
Y53000D01*
X147500Y70000D02*
Y106161D01*
X126807Y30693D02*
X144500D01*
X170024D02*
X185000Y45669D01*
X144500Y30693D02*
X170024D01*
X172024Y17307D02*
X185000Y4331D01*
X144500Y17307D02*
X172024D01*
X185000Y-17500D02*
Y4331D01*
D15*
X-114500Y-76472D02*
Y-68500D01*
X-63000Y-77472D02*
Y-70703D01*
X-60297Y-68000D01*
X79000Y-72500D02*
X82000Y-69500D01*
X-28500Y-72500D02*
X79000D01*
X75500Y-68000D02*
X79000Y-64500D01*
X-60297Y-68000D02*
X75500D01*
X72000Y-63500D02*
X76000Y-59500D01*
X-109500Y-63500D02*
X72000D01*
X-114500Y-68500D02*
X-109500Y-63500D01*
X26500Y-58000D02*
X59500D01*
X18500Y-50000D02*
X26500Y-58000D01*
X-141500Y-50000D02*
X18500D01*
X-155000Y-36500D02*
X-141500Y-50000D01*
X28500Y-53000D02*
X57500D01*
X20500Y-45000D02*
X28500Y-53000D01*
X-75000Y-45000D02*
X20500D01*
X-85000Y-35000D02*
X-75000Y-45000D01*
X32000Y-48500D02*
X55000D01*
X22000Y-38500D02*
X32000Y-48500D01*
X-8000Y-38500D02*
X22000D01*
X-14000Y-32500D02*
X-8000Y-38500D01*
X79000Y-81500D02*
X86000Y-74500D01*
X14500Y-81500D02*
X79000D01*
X55000Y-48500D02*
X84000Y-19500D01*
X57500Y-53000D02*
X86000Y-24500D01*
X59500Y-58000D02*
X88000Y-29500D01*
X94587D01*
X76000Y-59500D02*
X94587D01*
X79000Y-64500D02*
X94587D01*
X82000Y-69500D02*
X94587D01*
X86000Y-74500D02*
X94587D01*
X-15500Y-82000D02*
X-15000Y-81500D01*
X46528Y-22500D02*
X73500D01*
X-165972Y-23000D02*
X-159500D01*
X-155000Y-27500D01*
Y-36500D02*
Y-27500D01*
X-33528Y-23500D02*
X-33500Y-23528D01*
X-14000Y-32500D02*
Y-26000D01*
X-16500Y-23500D02*
X-14000Y-26000D01*
X-23972Y-23500D02*
X-16500D01*
X-95472Y-21500D02*
X-87000D01*
X-85000Y-23500D01*
Y-35000D02*
Y-23500D01*
X-104528Y-21500D02*
X-104500Y-21528D01*
X-32528Y-81500D02*
Y-76028D01*
X-29500Y-73000D01*
X84000Y-19500D02*
X94587D01*
X81500Y-14500D02*
X94587D01*
X73500Y-22500D02*
X81500Y-14500D01*
X86000Y-24500D02*
X94587D01*
X37248Y-22724D02*
X37472Y-22500D01*
X-175252Y-23224D02*
X-175028Y-23000D01*
X-114583Y-85610D02*
X-114500Y-85528D01*
X-128083Y-74472D02*
X-128000Y-74390D01*
X-77083Y-75472D02*
X-77000Y-75390D01*
X-63083Y-86610D02*
X-63000Y-86528D01*
X-142811Y-97083D02*
X-142500Y-96772D01*
X14500Y-96913D02*
X14669Y-97083D01*
X149472Y-39500D02*
X149500Y-39528D01*
X130413Y-39500D02*
X149472D01*
X130413Y-74500D02*
X138000D01*
X140500Y-77000D01*
Y-84500D02*
Y-77000D01*
X134500Y-90500D02*
X140500Y-84500D01*
X134500Y-103000D02*
Y-90500D01*
X124500Y-103000D02*
Y-89000D01*
X130500Y-83000D01*
Y-79500D01*
D16*
X-148000Y-57000D02*
X8500D01*
X-157402Y-66402D02*
X-148000Y-57000D01*
X14500Y-96913D02*
Y-81500D01*
X37248Y-34000D02*
Y-22724D01*
X-15000Y-81500D02*
X5472D01*
X-23472D02*
X-15000D01*
X-157402Y-99583D02*
Y-66402D01*
X-118110Y-35000D02*
Y19685D01*
X-47244D02*
X-47000Y-31000D01*
X23622Y-25500D02*
Y19685D01*
X120193Y17307D02*
X144500D01*
X117815Y19685D02*
X120193Y17307D01*
X94488Y19685D02*
X117815D01*
X-33500Y-33500D02*
Y-23528D01*
X-104500Y-33500D02*
Y-21528D01*
X-175252Y-34500D02*
Y-23224D01*
X-142500Y-96772D02*
Y-83528D01*
X149500Y-39528D02*
X162972D01*
X-91000Y-96732D02*
Y-84528D01*
X-32500Y-97287D02*
Y-81500D01*
X94472Y-102528D02*
Y-91000D01*
X94000Y-103000D02*
X94472Y-102528D01*
X94673Y-90799D02*
Y-80500D01*
D17*
X-124260Y-85610D02*
X-114583D01*
X-142500Y-74472D02*
X-128083D01*
X-91000Y-75472D02*
X-77083D01*
X-73260Y-86610D02*
X-63083D01*
D18*
X-23622Y-1000D02*
Y19685D01*
X47244Y-1000D02*
Y19685D01*
X-165354Y-2000D02*
Y19685D01*
X-94488Y-500D02*
Y19685D01*
D19*
X80709Y81496D02*
X94488Y67716D01*
X80709Y81496D02*
Y106299D01*
X70866Y11811D02*
Y62134D01*
X61024Y71976D02*
X70866Y62134D01*
X61024Y71976D02*
Y106299D01*
X9843D02*
X23622Y92520D01*
Y67716D02*
Y92520D01*
X0Y11811D02*
Y78500D01*
X-9843Y88342D02*
X0Y78500D01*
X-9843Y88342D02*
Y106299D01*
X-141732Y11811D02*
Y75732D01*
X-151575Y85575D02*
Y106299D01*
X-118110Y67716D02*
Y92520D01*
X-131890Y106299D02*
X-118110Y92520D01*
X-70866Y11811D02*
Y76866D01*
X-80709Y86709D02*
Y106299D01*
Y86709D02*
X-70866Y76866D01*
X-61024Y106299D02*
X-47244Y92520D01*
Y67716D02*
Y92520D01*
X-151575Y85575D02*
X-141732Y75732D01*
D20*
X-142862Y-74110D02*
X-142500Y-74472D01*
X-91630Y-97362D02*
X-91000Y-96732D01*
X-32575Y-97362D02*
X-32500Y-97287D01*
X94472Y-91000D02*
X94673Y-90799D01*
X147500Y106161D02*
X147638Y106299D01*
D21*
X104250Y-95000D02*
D03*
D22*
X-13500Y-57000D02*
D03*
Y-81500D02*
D03*
X-118000Y-58500D02*
D03*
Y-35000D02*
D03*
X-47000Y-57000D02*
D03*
Y-31000D02*
D03*
X23622Y-25500D02*
D03*
X8500Y-57000D02*
D03*
X-69000Y-120000D02*
D03*
Y-100000D02*
D03*
X-125500Y-120000D02*
D03*
Y-99000D02*
D03*
D23*
X37248Y-34000D02*
D03*
X47248D02*
D03*
X37248Y-1000D02*
D03*
X-33500Y-33500D02*
D03*
X-23500D02*
D03*
X-33500Y-500D02*
D03*
X-104500Y-33500D02*
D03*
X-94500D02*
D03*
X-104500Y-500D02*
D03*
X-175252Y-34500D02*
D03*
X-165252D02*
D03*
X-175252Y-1500D02*
D03*
X185000Y-17500D02*
D03*
Y-37185D02*
D03*
X147500Y70000D02*
D03*
X161500D02*
D03*
X185000Y4331D02*
D03*
Y45669D02*
D03*
X-118110Y67716D02*
D03*
X-165354D02*
D03*
X-118110Y19685D02*
D03*
X-165354D02*
D03*
X-47244Y67716D02*
D03*
X-94488D02*
D03*
X-47244Y19685D02*
D03*
X-94488D02*
D03*
X23622Y67716D02*
D03*
X-23622D02*
D03*
X23622Y19685D02*
D03*
X-23622D02*
D03*
X94488Y67716D02*
D03*
X47244D02*
D03*
X94488Y19685D02*
D03*
X47244D02*
D03*
D24*
X47248Y-1000D02*
D03*
X-23500Y-500D02*
D03*
X-94500D02*
D03*
X-165252Y-1500D02*
D03*
D25*
X14669Y-97083D02*
D03*
X-921D02*
D03*
X-32575D02*
D03*
X-48165D02*
D03*
X-142811D02*
D03*
X-158402D02*
D03*
X-91630D02*
D03*
X-107220D02*
D03*
D26*
X121500Y60500D02*
D03*
Y500D02*
D03*
D27*
X147638Y106299D02*
D03*
X167323D02*
D03*
X-151575D02*
D03*
X-131890D02*
D03*
X-80709D02*
D03*
X-61024D02*
D03*
X-9843D02*
D03*
X9843D02*
D03*
X61024D02*
D03*
X80709D02*
D03*
D28*
X134500Y-102000D02*
D03*
X124500D02*
D03*
X114500D02*
D03*
X104500D02*
D03*
X94500D02*
D03*
D29*
X144500Y37386D02*
D03*
Y30693D02*
D03*
Y24000D02*
D03*
Y17307D02*
D03*
D30*
Y10614D02*
D03*
D31*
X-141732Y11811D02*
D03*
X-70866D02*
D03*
X0D02*
D03*
X70866D02*
D03*
D32*
X196850Y-110236D02*
D03*
Y110236D02*
D03*
X-196850Y-110236D02*
D03*
Y110236D02*
D03*
M02*
